<?xml version="1.0" encoding="UTF-8" ?>
<!DOCTYPE svg PUBLIC "-//W3C//DTD SVG 1.1//EN" "http://www.w3.org/Graphics/SVG/1.1/DTD/svg11.dtd">
<svg width="418pt" height="134pt" viewBox="0 0 1270 409" version="1.1" xmlns="http://www.w3.org/2000/svg">
<path fill="#ffffff" d=" M 204.55 56.04 C 228.49 80.57 250.20 107.33 269.17 135.88 C 280.66 153.33 291.05 171.61 298.78 191.06 C 307.06 212.16 312.63 235.50 307.67 258.09 C 304.40 273.55 294.91 286.89 283.44 297.43 C 266.35 313.21 246.30 325.22 227.06 338.11 C 219.56 343.02 212.09 347.99 204.68 353.03 C 191.82 344.57 178.95 336.11 165.97 327.81 C 150.14 317.37 133.86 307.15 120.58 293.45 C 109.11 281.86 101.43 266.43 100.08 250.10 C 97.41 223.74 106.44 197.92 117.66 174.49 C 132.27 144.86 151.48 117.74 172.29 92.16 C 182.58 79.72 193.18 67.52 204.55 56.04 M 157.07 163.05 C 146.29 180.60 136.54 199.08 131.07 219.04 C 128.38 229.42 126.84 240.40 128.98 251.03 C 130.82 260.56 136.98 268.64 144.26 274.81 C 157.35 286.11 172.43 294.76 187.09 303.83 C 192.44 306.74 197.07 310.73 202.00 314.29 C 202.00 243.72 202.01 173.15 201.99 102.58 C 185.58 121.61 170.33 141.69 157.07 163.05 Z" />
<path fill="#00a6a4" d=" M 194.73 0.00 L 214.36 0.00 C 249.41 1.78 284.01 12.45 313.66 31.28 C 342.50 49.42 366.68 74.89 383.29 104.64 C 400.29 134.80 409.21 169.39 409.27 204.00 C 409.37 236.01 401.97 268.07 387.45 296.63 C 366.13 339.29 329.33 373.91 285.49 392.68 C 263.69 402.14 240.20 407.46 216.51 409.00 L 192.61 409.00 C 156.77 406.83 121.47 395.30 91.60 375.32 C 67.20 359.23 46.37 337.80 30.88 313.02 C 12.30 283.52 1.78 249.17 0.00 214.39 L 0.00 194.66 C 1.29 172.00 5.93 149.48 14.46 128.43 C 28.79 92.44 53.69 60.82 85.13 38.24 C 116.94 15.21 155.53 1.94 194.73 0.00 M 204.55 56.04 C 193.18 67.52 182.58 79.72 172.29 92.16 C 151.48 117.74 132.27 144.86 117.66 174.49 C 106.44 197.92 97.41 223.74 100.08 250.10 C 101.43 266.43 109.11 281.86 120.58 293.45 C 133.86 307.15 150.14 317.37 165.97 327.81 C 178.95 336.11 191.82 344.57 204.68 353.03 C 212.09 347.99 219.56 343.02 227.06 338.11 C 246.30 325.22 266.35 313.21 283.44 297.43 C 294.91 286.89 304.40 273.55 307.67 258.09 C 312.63 235.50 307.06 212.16 298.78 191.06 C 291.05 171.61 280.66 153.33 269.17 135.88 C 250.20 107.33 228.49 80.57 204.55 56.04 Z" />
<path fill="#00a6a4" d=" M 157.07 163.05 C 170.33 141.69 185.58 121.61 201.99 102.58 C 202.01 173.15 202.00 243.72 202.00 314.29 C 197.07 310.73 192.44 306.74 187.09 303.83 C 172.43 294.76 157.35 286.11 144.26 274.81 C 136.98 268.64 130.82 260.56 128.98 251.03 C 126.84 240.40 128.38 229.42 131.07 219.04 C 136.54 199.08 146.29 180.60 157.07 163.05 Z" />
<path fill="#ffffff" d=" M 654.20 21.16 C 661.95 18.92 670.78 24.92 671.23 33.03 C 672.38 41.01 665.07 48.93 656.97 48.04 C 649.18 48.21 642.76 40.41 644.02 32.79 C 644.54 27.30 648.81 22.38 654.20 21.16 Z" />
<path fill="#ffffff" d=" M 885.23 21.28 C 893.06 18.70 902.08 24.71 902.72 32.91 C 903.82 40.68 896.98 48.64 889.02 48.04 C 881.57 48.46 874.86 41.36 875.46 33.98 C 875.42 28.18 879.66 22.79 885.23 21.28 Z" />
<path fill="#ffffff" d=" M 548.70 73.09 C 553.15 64.77 561.54 58.68 570.89 57.27 C 579.39 56.23 588.50 57.59 595.63 62.59 C 606.50 70.19 610.41 84.34 609.50 97.03 C 609.50 114.52 609.50 132.01 609.50 149.49 C 602.02 149.53 594.53 149.46 587.05 149.53 C 586.94 132.68 587.02 115.83 587.01 98.99 C 586.84 91.74 585.75 83.25 579.52 78.58 C 572.47 73.89 562.53 75.84 556.57 81.46 C 551.35 86.20 548.42 93.41 549.43 100.46 C 549.60 116.80 549.45 133.15 549.50 149.50 C 541.91 149.50 534.33 149.51 526.75 149.49 C 526.75 119.50 526.75 89.50 526.75 59.50 C 534.08 59.49 541.41 59.50 548.75 59.50 C 548.74 64.03 548.80 68.56 548.70 73.09 Z" />
<path fill="#ffffff" d=" M 708.50 59.50 C 716.42 59.50 724.33 59.49 732.25 59.51 C 732.24 76.01 732.26 92.51 732.24 109.01 C 732.23 115.28 732.87 122.03 736.64 127.29 C 739.63 131.58 745.16 133.38 750.23 132.97 C 759.03 132.28 766.68 125.50 769.05 117.10 C 770.49 112.18 769.14 107.07 769.51 102.06 C 769.13 87.87 768.95 73.67 768.58 59.49 C 776.13 59.52 783.69 59.48 791.25 59.51 C 791.25 89.50 791.25 119.50 791.25 149.49 C 784.08 149.51 776.91 149.51 769.75 149.49 C 769.76 144.79 769.71 140.09 769.79 135.38 C 764.80 145.28 754.12 152.00 743.02 152.02 C 734.42 152.33 725.34 149.95 719.07 143.79 C 711.83 136.95 708.74 126.78 708.50 117.04 C 708.49 97.86 708.50 78.68 708.50 59.50 Z" />
<path fill="#ffffff" d=" M 815.01 59.49 C 822.51 59.51 830.00 59.49 837.50 59.50 C 837.50 89.50 837.50 119.50 837.50 149.50 C 830.00 149.51 822.51 149.49 815.02 149.51 C 814.98 119.50 814.99 89.50 815.01 59.49 Z" />
<path fill="#ffffff" d=" M 853.01 59.49 C 877.34 59.50 901.66 59.50 925.99 59.49 C 926.01 66.16 926.01 72.84 925.99 79.51 C 917.65 79.49 909.33 79.50 901.00 79.50 C 900.99 102.84 901.02 126.17 900.99 149.51 C 893.33 149.50 885.68 149.48 878.03 149.52 C 877.96 126.18 878.02 102.84 878.00 79.50 C 869.67 79.51 861.34 79.49 853.02 79.51 C 852.98 72.84 852.99 66.16 853.01 59.49 Z" />
<path fill="#ffffff" d=" M 481.24 59.51 C 488.83 59.49 496.41 59.50 504.00 59.50 C 504.00 89.50 504.00 119.50 504.00 149.50 C 496.42 149.51 488.84 149.49 481.26 149.51 C 481.22 119.51 481.26 89.51 481.24 59.51 Z" />
<path fill="#ffffff" d=" M 621.35 79.56 C 621.13 72.87 621.28 66.18 621.27 59.49 C 645.51 59.51 669.75 59.49 694.00 59.50 C 693.99 66.17 694.02 72.84 693.98 79.51 C 685.65 79.49 677.33 79.51 669.00 79.50 C 669.00 102.84 669.00 126.17 669.00 149.50 C 661.43 149.52 653.87 149.46 646.30 149.54 C 646.17 126.20 646.29 102.85 646.25 79.51 C 637.95 79.53 629.64 79.43 621.35 79.56 Z" />
<path fill="#ffffff" d=" M 925.48 137.68 C 930.47 135.37 936.39 140.86 934.44 145.99 C 933.23 150.45 927.20 152.05 923.77 149.13 C 919.88 146.26 920.89 139.28 925.48 137.68 M 925.12 139.04 C 921.24 140.91 921.57 148.15 925.97 149.12 C 928.08 149.63 930.98 149.61 932.36 147.64 C 933.81 145.52 933.79 142.55 932.45 140.38 C 930.84 138.16 927.44 138.04 925.12 139.04 Z" />
<path fill="#ffffff" d=" M 925.25 140.22 C 927.81 140.00 930.70 139.96 931.49 142.97 C 929.83 144.66 930.01 146.49 931.67 148.29 C 928.99 148.67 928.65 145.88 927.33 144.40 C 927.30 145.30 927.25 147.10 927.22 148.00 C 926.73 148.00 925.74 148.00 925.25 147.99 C 925.24 145.40 925.24 142.81 925.25 140.22 M 927.09 141.34 C 925.34 142.19 927.31 144.65 928.72 143.52 C 930.63 142.55 928.52 140.41 927.09 141.34 Z" />
<path fill="#ffffff" d=" M 1117.00 151.00 C 1132.92 151.00 1148.84 150.99 1164.76 151.01 C 1164.75 167.26 1164.75 183.50 1164.76 199.75 C 1178.92 199.75 1193.08 199.75 1207.25 199.75 C 1207.25 212.75 1207.25 225.75 1207.25 238.75 C 1193.50 238.47 1179.74 238.04 1166.00 237.51 C 1166.01 262.32 1165.98 287.14 1166.01 311.96 C 1166.19 319.60 1166.52 328.13 1171.85 334.17 C 1176.35 339.12 1183.56 339.76 1189.84 339.08 C 1195.50 338.64 1201.09 337.42 1206.50 335.68 C 1206.49 348.37 1206.53 361.06 1206.47 373.75 C 1191.17 378.45 1174.74 379.97 1158.94 377.08 C 1147.18 374.98 1135.64 369.27 1128.46 359.47 C 1119.99 348.25 1117.52 333.82 1117.02 320.09 C 1116.97 292.98 1117.02 265.87 1117.00 238.75 C 1107.17 238.76 1097.34 238.73 1087.52 238.77 C 1087.47 225.76 1087.51 212.76 1087.50 199.75 C 1097.33 199.75 1107.16 199.75 1116.99 199.75 C 1117.01 183.50 1116.99 167.25 1117.00 151.00 Z" />
<path fill="#ffffff" d=" M 578.46 196.65 C 590.61 193.48 603.63 195.21 615.15 199.91 C 627.40 205.04 637.23 214.91 643.69 226.38 C 651.02 214.05 662.10 203.61 675.81 198.86 C 685.43 195.18 695.83 194.92 705.99 194.74 C 722.09 195.91 737.55 203.80 747.94 216.16 C 758.77 228.33 764.90 244.70 763.85 261.03 C 763.26 267.02 763.57 273.04 763.50 279.04 C 763.50 310.78 763.51 342.52 763.49 374.25 C 747.24 374.25 731.00 374.26 714.75 374.25 C 714.74 344.51 714.75 314.77 714.75 285.03 C 714.86 272.15 714.96 258.32 708.08 246.93 C 703.79 239.61 695.37 235.55 687.04 235.49 C 668.01 235.39 651.17 252.14 650.02 270.91 C 650.56 305.47 650.04 340.07 650.32 374.64 C 634.05 374.89 617.77 374.69 601.50 374.75 C 601.50 338.51 601.49 302.28 601.50 266.04 C 601.63 252.48 591.31 239.74 578.10 236.85 C 567.88 234.44 556.42 237.56 549.13 245.20 C 540.64 253.76 537.20 266.18 536.99 277.98 C 537.01 311.07 537.00 344.16 537.00 377.25 C 520.76 377.27 504.53 377.22 488.29 377.27 C 488.18 318.85 488.28 260.43 488.24 202.01 C 503.99 201.99 519.75 202.00 535.50 202.00 C 535.49 210.32 535.52 218.65 535.48 226.97 C 545.20 211.81 560.76 200.41 578.46 196.65 Z" />
<path fill="#ffffff" d=" M 983.08 197.65 C 995.98 193.65 1010.17 194.29 1022.63 199.55 C 1042.07 207.26 1056.84 225.50 1060.28 246.14 C 1061.58 253.05 1061.48 260.14 1060.55 267.08 C 1060.45 302.97 1060.52 338.85 1060.51 374.74 C 1044.26 374.77 1028.00 374.74 1011.75 374.75 C 1011.72 340.82 1011.79 306.88 1011.72 272.94 C 1011.20 263.16 1009.35 252.80 1003.02 244.99 C 998.47 239.30 991.24 236.34 984.08 236.07 C 963.96 235.17 945.55 253.03 944.99 272.99 C 945.02 307.08 944.99 341.16 945.00 375.25 C 928.75 375.25 912.50 375.26 896.25 375.25 C 896.29 316.74 896.17 258.23 896.31 199.72 C 912.62 199.79 928.93 199.72 945.25 199.75 C 945.25 208.56 945.26 217.38 945.24 226.19 C 954.02 212.66 967.36 201.86 983.08 197.65 Z" />
<path fill="#ffffff" d=" M 809.00 199.75 C 825.25 199.75 841.50 199.74 857.75 199.75 C 857.75 258.25 857.75 316.75 857.75 375.25 C 841.50 375.26 825.25 375.25 809.00 375.25 C 809.00 316.75 809.00 258.25 809.00 199.75 Z" />
<path fill="#ffffff" d=" M 1244.56 335.78 C 1249.51 334.67 1254.92 335.11 1259.42 337.56 C 1265.30 340.83 1269.47 346.99 1270.00 353.75 L 1270.00 357.36 C 1269.15 367.35 1260.14 375.95 1250.01 375.76 C 1239.30 376.28 1229.16 366.83 1229.45 356.01 C 1228.78 346.77 1235.64 337.89 1244.56 335.78 M 1244.63 338.70 C 1239.73 339.48 1235.19 342.89 1233.79 347.77 C 1232.20 353.13 1232.18 359.24 1234.50 364.40 C 1237.14 370.15 1243.99 372.58 1249.96 372.05 C 1253.97 371.67 1258.31 371.12 1261.49 368.36 C 1265.39 365.15 1266.59 359.84 1266.70 355.01 C 1266.61 350.16 1265.40 344.77 1261.38 341.64 C 1256.69 338.03 1250.25 337.75 1244.63 338.70 Z" />
<path fill="#ffffff" d=" M 1242.00 343.75 C 1246.75 344.04 1252.26 342.75 1256.39 345.76 C 1260.32 348.96 1258.49 356.25 1253.34 356.96 C 1255.31 360.23 1257.36 363.45 1259.29 366.75 C 1257.56 366.75 1255.86 366.76 1254.16 366.77 C 1252.34 363.60 1250.64 360.37 1248.81 357.21 C 1248.17 357.22 1246.89 357.26 1246.25 357.27 C 1246.24 360.43 1246.24 363.59 1246.25 366.75 C 1244.82 366.75 1243.40 366.75 1242.00 366.75 C 1242.00 359.08 1241.99 351.42 1242.00 343.75 M 1246.26 347.50 C 1246.24 349.58 1246.24 351.67 1246.25 353.76 C 1248.32 353.64 1250.54 354.08 1252.55 353.37 C 1254.84 352.32 1254.65 348.52 1252.27 347.70 C 1250.29 347.28 1248.24 347.55 1246.26 347.50 Z" />
</svg>